<svg id="visual" viewBox="0 0 900 400" width="900" height="400" xmlns="http://www.w3.org/2000/svg" xmlns:xlink="http://www.w3.org/1999/xlink" version="1.1"><rect x="0" y="0" width="900" height="400" fill="#3c31dd"></rect><path d="M0 293L30 286.7C60 280.3 120 267.7 180 274.5C240 281.3 300 307.7 360 307.3C420 307 480 280 540 273.3C600 266.7 660 280.3 720 283.8C780 287.3 840 280.7 870 277.3L900 274L900 401L870 401C840 401 780 401 720 401C660 401 600 401 540 401C480 401 420 401 360 401C300 401 240 401 180 401C120 401 60 401 30 401L0 401Z" fill="#fff" stroke-linecap="round" stroke-linejoin="miter"></path></svg>